<svg width="391" height="82" viewBox="0 0 391 82" fill="none" xmlns="http://www.w3.org/2000/svg">
<path d="M73.9753 3.40625L39.7887 81.2242H34.1866L0 3.40625H6.14462L37.1552 73.8745L68.1658 3.40625H73.9753Z" fill="#1E1E20"/>
<path d="M88.8628 7.80346C88.4317 7.38801 88.0923 6.88472 87.8667 6.3267C87.6411 5.76868 87.5346 5.16855 87.554 4.56577C87.554 3.35502 88.0281 2.19389 88.8722 1.33776C89.7163 0.481634 90.8611 0.000616247 92.0548 0.000616247C93.2439 -0.0192272 94.3921 0.440855 95.2468 1.27957C95.6812 1.69245 96.0228 2.19521 96.2486 2.75386C96.4745 3.3125 96.5792 3.91395 96.5556 4.51726C96.5577 5.11523 96.4431 5.70773 96.2184 6.2606C95.9938 6.81347 95.6635 7.31571 95.2467 7.73855C94.8298 8.16138 94.3346 8.49639 93.7895 8.72424C93.2445 8.95209 92.6603 9.06835 92.0708 9.06621C91.4804 9.08032 90.8931 8.976 90.3426 8.75932C89.7921 8.54263 89.2892 8.21779 88.8628 7.80346ZM89.3096 23.1825H94.7839V81.2182H89.3096V23.1825Z" fill="#1E1E20"/>
<path d="M146.17 77.543C144.676 78.9357 142.9 79.98 140.967 80.6026C138.866 81.3056 136.667 81.6609 134.455 81.6548C129.475 81.6548 125.64 80.2627 122.948 77.4782C121.537 75.9193 120.451 74.0879 119.755 72.0936C119.058 70.0992 118.765 67.9828 118.894 65.8711V27.9739H108.376V23.1174H118.894V10.458H124.368V23.1174H142.563V27.9739H124.368V65.3207C124.15 68.4328 125.109 71.5124 127.049 73.933C128.098 74.9698 129.351 75.7687 130.727 76.2767C132.103 76.7846 133.569 76.99 135.029 76.8792C138.286 76.9881 141.461 75.8298 143.903 73.6415L146.17 77.543Z" fill="#1E1E20"/>
<path d="M200.52 28.2435C204.318 31.9021 206.218 37.2983 206.218 44.432V81.2283H200.951V70.8678C199.14 74.2715 196.359 77.0417 192.971 78.8162C189.068 80.799 184.742 81.7722 180.378 81.6492C173.994 81.6492 168.972 80.1275 165.312 77.0841C163.616 75.6382 162.246 73.8413 161.291 71.8138C160.337 69.7863 159.822 67.5752 159.779 65.329C159.737 63.0827 160.169 60.8533 161.046 58.7903C161.923 56.7274 163.225 54.8785 164.865 53.368C168.259 50.357 173.686 48.8568 181.144 48.8676H200.759V44.1891C200.759 38.7822 199.307 34.6703 196.434 31.8535C193.561 29.0367 189.316 27.6284 183.762 27.6284C180.037 27.6128 176.342 28.2933 172.861 29.6357C169.619 30.8311 166.63 32.6383 164.051 34.9618L161.306 30.9632C164.311 28.2777 167.809 26.2202 171.6 24.9087C175.65 23.4601 179.914 22.7263 184.209 22.7394C191.284 22.7394 196.721 24.5742 200.52 28.2435ZM193.226 73.7817C196.668 71.4167 199.296 68.0211 200.743 64.0686V53.1738H181.24C175.601 53.1738 171.526 54.2152 169.014 56.2981C167.769 57.3239 166.778 58.6314 166.121 60.1158C165.465 61.6002 165.16 63.2201 165.232 64.8456C165.168 66.5649 165.513 68.2745 166.238 69.8299C166.963 71.3853 168.047 72.7407 169.398 73.7817C172.175 75.9401 176.085 77.0193 181.128 77.0193C185.389 77.1865 189.601 76.0591 193.226 73.7817Z" fill="#1E1E20"/>
<path d="M274.352 53.531H225.147C225.219 57.7837 226.391 61.9426 228.546 65.5914C230.624 69.0415 233.601 71.8425 237.149 73.6856C240.919 75.6626 245.115 76.6583 249.358 76.5833C252.913 76.6217 256.438 75.9221 259.717 74.5275C262.833 73.2161 265.576 71.1347 267.697 68.4729L270.889 72.1315C268.368 75.1995 265.154 77.6043 261.52 79.1411C257.124 80.9557 252.391 81.7769 247.65 81.5476C242.909 81.3184 238.275 80.0442 234.069 77.8137C229.697 75.3709 226.074 71.7523 223.599 67.356C221.028 62.7142 219.723 57.4619 219.816 52.1388C219.735 46.8534 220.964 41.6319 223.391 36.954C225.637 32.6 229.029 28.9631 233.191 26.4477C237.458 23.9915 242.281 22.7002 247.188 22.7002C252.095 22.7002 256.917 23.9915 261.185 26.4477C265.324 28.9266 268.7 32.5253 270.937 36.8407C273.361 41.4956 274.586 46.6969 274.496 51.9607L274.352 53.531ZM236.319 30.3491C233.115 32.1613 230.447 34.8108 228.594 38.0224C226.63 41.4268 225.486 45.2544 225.259 49.1925H269.085C268.931 45.2635 267.8 41.4379 265.797 38.071C263.868 34.8274 261.131 32.1553 257.862 30.3227C254.593 28.4901 250.906 27.5613 247.172 27.6295C243.383 27.5698 239.644 28.5068 236.319 30.3491Z" fill="#1E1E20"/>
<path d="M332.957 29.0719C337.127 33.3025 339.208 39.3786 339.197 47.3001V81.2959H333.723V47.7533C333.723 41.278 332.095 36.3135 328.839 32.8599C325.583 29.4064 321.04 27.7013 315.209 27.7444C308.474 27.7444 303.191 29.7842 299.249 33.8637C295.307 37.9432 293.439 43.4149 293.439 50.3111V81.2149H287.965V23.1793H293.216V35.7415C295.142 31.729 298.219 28.4 302.042 26.1903C306.278 23.8054 311.067 22.6148 315.911 22.7422C323.104 22.7422 328.786 24.8521 332.957 29.0719Z" fill="#1E1E20"/>
<path d="M390.597 77.543C389.104 78.9357 387.328 79.98 385.394 80.6026C383.294 81.3056 381.095 81.6609 378.883 81.6548C373.903 81.6548 370.067 80.2627 367.375 77.4782C365.965 75.9193 364.879 74.0879 364.183 72.0936C363.486 70.0992 363.193 67.9828 363.321 65.8711V27.9739H352.804V23.1174H363.321V10.458H368.796V23.1174H386.99V27.9739H368.796V65.3207C368.578 68.4328 369.536 71.5124 371.477 73.933C372.525 74.9707 373.778 75.7701 375.154 76.2781C376.53 76.7862 377.997 76.991 379.457 76.8792C382.714 76.9881 385.889 75.8298 388.331 73.6415L390.597 77.543Z" fill="#1E1E20"/>
<path d="M73.9753 3.40625L39.7887 81.2242H34.1866L0 3.40625H6.14462L37.1552 73.8745L68.1658 3.40625H73.9753Z" fill="#1E1E20"/>
<path d="M88.8628 7.80346C88.4317 7.38801 88.0923 6.88472 87.8667 6.3267C87.6411 5.76868 87.5346 5.16855 87.554 4.56577C87.554 3.35502 88.0281 2.19389 88.8722 1.33776C89.7163 0.481634 90.8611 0.000616247 92.0548 0.000616247C93.2439 -0.0192272 94.3921 0.440855 95.2468 1.27957C95.6812 1.69245 96.0228 2.19521 96.2486 2.75386C96.4745 3.3125 96.5792 3.91395 96.5556 4.51726C96.5577 5.11523 96.4431 5.70773 96.2184 6.2606C95.9938 6.81347 95.6635 7.31571 95.2467 7.73855C94.8298 8.16138 94.3346 8.49639 93.7895 8.72424C93.2445 8.95209 92.6603 9.06835 92.0708 9.06621C91.4804 9.08032 90.8931 8.976 90.3426 8.75932C89.7921 8.54263 89.2892 8.21779 88.8628 7.80346ZM89.3096 23.1825H94.7839V81.2182H89.3096V23.1825Z" fill="#1E1E20"/>
<path d="M146.17 77.543C144.676 78.9357 142.9 79.98 140.967 80.6026C138.866 81.3056 136.667 81.6609 134.455 81.6548C129.475 81.6548 125.64 80.2627 122.948 77.4782C121.537 75.9193 120.451 74.0879 119.755 72.0936C119.058 70.0992 118.765 67.9828 118.894 65.8711V27.9739H108.376V23.1174H118.894V10.458H124.368V23.1174H142.563V27.9739H124.368V65.3207C124.15 68.4328 125.109 71.5124 127.049 73.933C128.098 74.9698 129.351 75.7687 130.727 76.2767C132.103 76.7846 133.569 76.99 135.029 76.8792C138.286 76.9881 141.461 75.8298 143.903 73.6415L146.17 77.543Z" fill="#1E1E20"/>
<path d="M200.52 28.2435C204.318 31.9021 206.218 37.2983 206.218 44.432V81.2283H200.951V70.8678C199.14 74.2715 196.359 77.0417 192.971 78.8162C189.068 80.799 184.742 81.7722 180.378 81.6492C173.994 81.6492 168.972 80.1275 165.312 77.0841C163.616 75.6382 162.246 73.8413 161.291 71.8138C160.337 69.7863 159.822 67.5752 159.779 65.329C159.737 63.0827 160.169 60.8533 161.046 58.7903C161.923 56.7274 163.225 54.8785 164.865 53.368C168.259 50.357 173.686 48.8568 181.144 48.8676H200.759V44.1891C200.759 38.7822 199.307 34.6703 196.434 31.8535C193.561 29.0367 189.316 27.6284 183.762 27.6284C180.037 27.6128 176.342 28.2933 172.861 29.6357C169.619 30.8311 166.63 32.6383 164.051 34.9618L161.306 30.9632C164.311 28.2777 167.809 26.2202 171.6 24.9087C175.65 23.4601 179.914 22.7263 184.209 22.7394C191.284 22.7394 196.721 24.5742 200.52 28.2435ZM193.226 73.7817C196.668 71.4167 199.296 68.0211 200.743 64.0686V53.1738H181.24C175.601 53.1738 171.526 54.2152 169.014 56.2981C167.769 57.3239 166.778 58.6314 166.121 60.1158C165.465 61.6002 165.16 63.2201 165.232 64.8456C165.168 66.5649 165.513 68.2745 166.238 69.8299C166.963 71.3853 168.047 72.7407 169.398 73.7817C172.175 75.9401 176.085 77.0193 181.128 77.0193C185.389 77.1865 189.601 76.0591 193.226 73.7817Z" fill="#1E1E20"/>
<path d="M274.352 53.531H225.147C225.219 57.7837 226.391 61.9426 228.546 65.5914C230.624 69.0415 233.601 71.8425 237.149 73.6856C240.919 75.6626 245.115 76.6583 249.358 76.5833C252.913 76.6217 256.438 75.9221 259.717 74.5275C262.833 73.2161 265.576 71.1347 267.697 68.4729L270.889 72.1315C268.368 75.1995 265.154 77.6043 261.52 79.1411C257.124 80.9557 252.391 81.7769 247.65 81.5476C242.909 81.3184 238.275 80.0442 234.069 77.8137C229.697 75.3709 226.074 71.7523 223.599 67.356C221.028 62.7142 219.723 57.4619 219.816 52.1388C219.735 46.8534 220.964 41.6319 223.391 36.954C225.637 32.6 229.029 28.9631 233.191 26.4477C237.458 23.9915 242.281 22.7002 247.188 22.7002C252.095 22.7002 256.917 23.9915 261.185 26.4477C265.324 28.9266 268.7 32.5253 270.937 36.8407C273.361 41.4956 274.586 46.6969 274.496 51.9607L274.352 53.531ZM236.319 30.3491C233.115 32.1613 230.447 34.8108 228.594 38.0224C226.63 41.4268 225.486 45.2544 225.259 49.1925H269.085C268.931 45.2635 267.8 41.4379 265.797 38.071C263.868 34.8274 261.131 32.1553 257.862 30.3227C254.593 28.4901 250.906 27.5613 247.172 27.6295C243.383 27.5698 239.644 28.5068 236.319 30.3491Z" fill="#1E1E20"/>
<path d="M332.957 29.0719C337.127 33.3025 339.208 39.3786 339.197 47.3001V81.2959H333.723V47.7533C333.723 41.278 332.095 36.3135 328.839 32.8599C325.583 29.4064 321.04 27.7013 315.209 27.7444C308.474 27.7444 303.191 29.7842 299.249 33.8637C295.307 37.9432 293.439 43.4149 293.439 50.3111V81.2149H287.965V23.1793H293.216V35.7415C295.142 31.729 298.219 28.4 302.042 26.1903C306.278 23.8054 311.067 22.6148 315.911 22.7422C323.104 22.7422 328.786 24.8521 332.957 29.0719Z" fill="#1E1E20"/>
<path d="M390.597 77.543C389.104 78.9357 387.328 79.98 385.394 80.6026C383.294 81.3056 381.095 81.6609 378.883 81.6548C373.903 81.6548 370.067 80.2627 367.375 77.4782C365.965 75.9193 364.879 74.0879 364.183 72.0936C363.486 70.0992 363.193 67.9828 363.321 65.8711V27.9739H352.804V23.1174H363.321V10.458H368.796V23.1174H386.99V27.9739H368.796V65.3207C368.578 68.4328 369.536 71.5124 371.477 73.933C372.525 74.9707 373.778 75.7701 375.154 76.2781C376.53 76.7862 377.997 76.991 379.457 76.8792C382.714 76.9881 385.889 75.8298 388.331 73.6415L390.597 77.543Z" fill="#1E1E20"/>
</svg>
